<svg xmlns="http://www.w3.org/2000/svg" viewBox="0 0 634.68 144.13"><defs><style>.cls-1{fill:#0080ff;}</style></defs><g id="Layer_2" data-name="Layer 2"><g id="Laag_1" data-name="Laag 1"><path class="cls-1" d="M22.91,41V53.45h.38C28.06,46,38.18,39.13,51.54,39.13c18.33,0,34.74,12,34.74,41v62.05H63.38V82.85c0-15.27-6.69-22.91-17.38-22.91-13.55,0-23.09,10.31-23.09,25v57.27H0V41Z"/><path class="cls-1" d="M104,91.82c0-29.59,22.52-52.31,51.73-52.31s51.73,22.72,51.73,52.31S185,144.13,155.76,144.13,104,121.41,104,91.82Zm79.79,0c0-18.14-12-30.93-28.06-30.93S127.7,73.68,127.7,91.82s12,30.93,28.06,30.93S183.82,110,183.82,91.82Z"/><path class="cls-1" d="M369,76.55v65.67H346.07V78.84c0-11.46-6.11-18.33-16.22-18.33-12.6,0-20.81,10.31-20.81,26v55.75H286.13V78.84c0-11.46-6.11-18.33-16.22-18.33-12.6,0-20.81,10.31-20.81,26v55.75H226.19V41H249.1v12.6h.38C255.59,43.9,265.9,39.51,276,39.51c11.84,0,20.81,5.54,26.54,16.8,6.87-9.73,18.13-16.8,34.93-16.8C356.76,39.51,369,54.4,369,76.55Z"/><path class="cls-1" d="M388.63,15.27a15.27,15.27,0,0,1,30.54,0,15.27,15.27,0,0,1-30.54,0ZM415.35,41V142.22h-22.9V41Z"/><path class="cls-1" d="M434.05,91.82c0-29.59,22.53-52.31,51.74-52.31s51.73,22.72,51.73,52.31S515,144.13,485.79,144.13,434.05,121.41,434.05,91.82Zm79.8,0c0-18.14-12-30.93-28.06-30.93s-28.06,12.79-28.06,30.93,12,30.93,28.06,30.93S513.85,110,513.85,91.82Z"/><path class="cls-1" d="M593.44,144.13c-23.29,0-40.47-10.5-44.67-32.65h23.67c2.3,9,8.4,13.17,21,13.17,9,0,17.56-3.05,17.56-9.54,0-8.59-8-9.55-22.52-13.36s-36.27-7.45-36.27-31.12c0-17.56,17.18-31.5,39.13-31.5,22.72,0,37.23,12.79,41.43,33.22H609.1c-1-7.45-6.49-13.75-17.76-13.75-8.78,0-15.46,3.82-15.46,10.31,0,8.59,8,9.55,22.53,13.36s36.27,7.45,36.27,31.12C634.68,131.72,616.73,144.13,593.44,144.13Z"/></g></g></svg>